HIERARCHY
ROOT root
{
	OFFSET 0.000000 0.000000 0.000000
	CHANNELS 6 Xposition Yposition Zposition Zrotation Yrotation Xrotation
	JOINT lhip
	{
		OFFSET 0.058581 -0.082280 -0.017664
		CHANNELS 3 Zrotation Yrotation Xrotation
		JOINT lknee
		{
			OFFSET 0.043451 -0.386469 0.008037
			CHANNELS 3 Zrotation Yrotation Xrotation
			JOINT lankle
			{
				OFFSET -0.014790 -0.426874 -0.037428
				CHANNELS 3 Zrotation Yrotation Xrotation
				JOINT ltoe
				{
					OFFSET 0.041054 -0.060286 0.122042
					CHANNELS 3 Zrotation Yrotation Xrotation
					End Site
					{
						OFFSET 0.000000 0.000000 0.000000
					}
				}
			}
		}
	}
	JOINT rhip
	{
		OFFSET -0.060310 -0.090513 -0.013543
		CHANNELS 3 Zrotation Yrotation Xrotation
		JOINT rknee
		{
			OFFSET -0.043257 -0.383688 -0.004843
			CHANNELS 3 Zrotation Yrotation Xrotation
			JOINT rankle
			{
				OFFSET 0.019056 -0.420046 -0.034562
				CHANNELS 3 Zrotation Yrotation Xrotation
				JOINT rtoe
				{
					OFFSET -0.034840 -0.062106 0.130323
					CHANNELS 3 Zrotation Yrotation Xrotation
					End Site
					{
						OFFSET 0.000000 0.000000 0.000000
					}
				}
			}
		}
	}
	JOINT lowerback
	{
		OFFSET 0.004439 0.124404 -0.038385
		CHANNELS 3 Zrotation Yrotation Xrotation
		JOINT upperback
		{
			OFFSET 0.004488 0.137956 0.026820
			CHANNELS 3 Zrotation Yrotation Xrotation
			JOINT chest
			{
				OFFSET -0.002265 0.056032 0.002855
				CHANNELS 3 Zrotation Yrotation Xrotation
				JOINT lowerneck
				{
					OFFSET -0.013390 0.211636 -0.033468
					CHANNELS 3 Zrotation Yrotation Xrotation
					JOINT upperneck
					{
						OFFSET 0.010113 0.088937 0.050410
						CHANNELS 3 Zrotation Yrotation Xrotation
						End Site
						{
							OFFSET 0.000000 0.000000 0.000000
						}
					}
				}
				JOINT lclavicle
				{
					OFFSET 0.071702 0.114000 -0.018898
					CHANNELS 3 Zrotation Yrotation Xrotation
					JOINT lshoulder
					{
						OFFSET 0.122921 0.045205 -0.019046
						CHANNELS 3 Zrotation Yrotation Xrotation
						JOINT lelbow
						{
							OFFSET 0.255332 -0.015649 -0.022946
							CHANNELS 3 Zrotation Yrotation Xrotation
							JOINT lwrist
							{
								OFFSET 0.265709 0.012698 -0.007375
								CHANNELS 3 Zrotation Yrotation Xrotation
								End Site
								{
									OFFSET 0.000000 0.000000 0.000000
								}
							}
						}
					}
				}
				JOINT rclavicle
				{
					OFFSET -0.082954 0.112472 -0.023707
					CHANNELS 3 Zrotation Yrotation Xrotation
					JOINT rshoulder
					{
						OFFSET -0.113228 0.046853 -0.008472
						CHANNELS 3 Zrotation Yrotation Xrotation
						JOINT relbow
						{
							OFFSET -0.260127 -0.014369 -0.031269
							CHANNELS 3 Zrotation Yrotation Xrotation
							JOINT rwrist
							{
								OFFSET -0.269108 0.006794 -0.006027
								CHANNELS 3 Zrotation Yrotation Xrotation
								End Site
								{
									OFFSET 0.000000 0.000000 0.000000
								}
							}
						}
					}
				}
			}
		}
	}
}
MOTION
Frames: 8
Frame Time: 0.033333
0.238039 0.309464 1.007728 -3.743586 -0.976608 84.201098 1.317408 -3.869550 -16.265117 -7.594635 2.257603 48.512470 0.116671 9.592506 -21.483766 0.000000 -0.000000 0.000000 3.026803 -2.884028 0.340774 -0.612637 0.781419 13.319286 2.579197 -7.712640 -9.915271 0.000000 -0.000000 0.000000 0.423427 5.013688 12.602868 0.218752 -0.172466 -0.098136 -0.405868 1.025458 1.431284 -4.000599 5.907384 -11.975017 -5.293923 1.533602 -3.268788 -19.310758 1.997533 -1.065964 -38.860423 -0.862836 5.058662 19.336732 -58.413292 1.834128 -3.423557 -10.849112 -4.101816 19.360348 6.069307 -3.028974 35.068862 13.256132 4.675292 -30.012904 46.957870 -23.496619 8.314620 6.647281 -21.048521 
0.237359 0.279417 1.007213 -4.290025 -1.418005 84.521193 1.394921 -4.566907 -18.671383 -6.107176 3.386160 41.946584 0.536955 9.738133 -21.926398 0.000000 -0.000000 0.000000 2.177791 -3.794725 2.957600 -0.668953 1.517018 11.559190 3.192824 -6.800770 -10.694240 0.000000 -0.000000 0.000000 0.926837 5.953039 12.327492 -0.939716 0.305804 -0.430943 -1.116721 1.613230 1.154886 -4.724818 5.486258 -11.335962 -6.061430 1.509081 -1.955109 -19.476828 2.067844 -1.676844 -39.405330 -1.204709 6.326076 23.744567 -66.010326 0.062259 -4.681303 -12.372360 -4.148630 17.741313 6.912167 -3.348651 31.338955 15.099712 2.586342 -36.452285 49.993909 -30.317122 8.221361 7.711728 -22.001678 
0.237344 0.250432 1.004055 -4.648848 -1.608044 85.060567 1.350865 -4.753626 -20.706230 -4.344109 3.934906 33.999137 1.026189 10.122163 -21.291293 0.000000 -0.000000 0.000000 1.654482 -4.419592 4.598046 -0.774789 2.268204 11.057424 3.545281 -6.365595 -11.979384 0.000000 -0.000000 0.000000 1.666617 6.462546 12.205137 -2.187512 0.998165 -0.951966 -1.865306 2.105528 0.934637 -5.218563 4.952636 -10.945059 -6.736998 1.778855 -0.613721 -20.025077 2.351161 -2.261410 -40.318225 -1.704026 7.574100 31.609296 -72.811625 -5.460247 -4.422240 -13.585693 -4.923222 16.166854 7.833364 -3.883242 27.173811 17.051639 -0.154684 -40.974844 49.677421 -36.606159 6.270306 7.916992 -22.933277 
0.237528 0.221348 0.998974 -4.842769 -1.525712 85.656192 1.241961 -4.540759 -21.924903 -2.983734 3.586395 24.512605 1.503541 10.353318 -19.277960 0.000000 -0.000000 0.000000 1.397284 -5.019168 5.905060 -0.834375 2.898119 11.121385 3.649800 -6.173036 -13.468464 0.000000 -0.000000 0.000000 2.533398 6.641556 12.037775 -3.444545 1.754960 -1.339159 -2.560286 2.526553 0.693309 -5.482805 4.291400 -10.552011 -7.151645 2.260487 0.735089 -21.022427 2.602759 -2.748391 -41.780853 -2.212330 8.999784 46.479141 -77.739363 -18.522819 -3.155106 -14.343233 -6.497661 14.894600 8.966125 -4.422459 22.608088 18.840628 -3.374954 -42.207393 46.855235 -40.614207 3.647077 7.397765 -23.189613 
0.237741 0.191128 0.992620 -4.779518 -1.301338 86.331983 0.987117 -4.213071 -22.347570 -2.090840 2.022422 14.043811 1.607985 9.566409 -16.949206 0.000000 -0.000000 0.000000 1.238152 -5.611186 7.222060 -0.856201 3.409874 11.242330 3.735244 -6.060285 -14.998750 0.000000 -0.000000 0.000000 3.253742 6.649823 11.416277 -4.561934 2.380097 -1.349048 -3.145003 2.846408 0.509511 -5.429390 3.617236 -9.882567 -7.429194 2.785717 1.885841 -22.387026 2.809282 -2.961806 -43.898622 -2.906521 10.433732 68.194055 -79.922431 -38.862651 -1.825692 -14.950040 -8.596553 14.081470 10.115598 -4.825791 18.205766 20.377922 -6.629786 -41.345614 42.887745 -42.721190 0.781607 6.542858 -22.847611 
0.238429 0.159508 0.985686 -4.711853 -1.200257 86.925903 0.602411 -3.947959 -22.448093 -1.569342 0.663475 5.304007 1.050647 7.814678 -16.346555 0.000000 -0.000000 0.000000 0.912870 -5.957318 8.517810 -0.948114 3.870485 11.841602 4.087391 -5.748650 -16.637705 0.000000 -0.000000 0.000000 3.687599 6.744542 10.698175 -5.513094 2.863246 -1.138635 -3.690070 3.027248 0.297817 -5.225043 3.133397 -9.165585 -7.730594 3.080367 3.140965 -23.671075 2.916483 -2.881318 -46.863645 -3.762239 11.798449 84.722805 -79.601575 -54.553220 -1.015232 -15.601885 -11.750338 13.458744 10.923534 -5.240762 15.151656 22.068568 -9.526276 -40.077152 38.431447 -44.107646 -1.164619 5.685543 -22.964105 
0.239975 0.126629 0.978685 -4.879822 -1.345909 87.187465 0.380409 -4.683225 -23.216328 -1.628555 1.196370 3.356847 0.460406 6.412034 -17.168225 0.000000 -0.000000 0.000000 0.400643 -5.749206 9.800742 -1.186381 4.358311 13.275341 4.652747 -5.459718 -18.293209 0.000000 -0.000000 0.000000 3.828978 7.080153 10.391442 -6.246173 3.186679 -0.992780 -4.311418 3.049850 0.180674 -5.064041 2.951386 -8.651409 -8.034829 3.414788 4.699229 -24.689648 2.770055 -2.754380 -50.091442 -4.735513 12.982143 90.356519 -78.340027 -60.278413 -1.127618 -16.213676 -15.422920 12.967854 11.336976 -5.543027 13.901812 23.803770 -11.433118 -40.056760 34.613802 -46.419907 -1.587124 4.959358 -24.690086 
0.242335 0.092196 0.972590 -4.953454 -1.879444 87.139569 -0.142594 -6.665543 -24.539787 -1.810097 2.122418 7.995454 1.290082 6.389310 -15.960285 0.000000 -0.000000 0.000000 -0.285124 -5.381830 10.941533 -1.659557 5.012863 15.741960 5.119477 -5.525728 -19.552167 0.000000 -0.000000 0.000000 3.420517 7.750227 10.233133 -6.679878 3.114478 -0.536390 -4.911764 2.814347 0.166472 -5.114949 2.716740 -8.220404 -8.037282 4.012754 5.925859 -25.560054 2.046764 -2.578945 -52.380345 -5.891126 13.896353 90.705483 -77.086513 -61.492755 -0.732016 -16.049253 -18.292006 12.960766 11.577914 -5.502140 14.242819 24.654591 -11.730302 -42.630012 33.133634 -50.035467 -1.562131 4.420597 -26.364872 
